<svg width="100px" height="100px" enable-background="new 0.5 600.5 100 100" version="1.1" viewBox=".5 600.5 100 100" xmlns="http://www.w3.org/2000/svg">
 <path d="m97.32 612.12c-0.067-1.305-1.179-2.308-2.483-2.241-0.552 0.028-1.078 0.25-1.484 0.625-32.854 25.9-35.183-22.083-66.016-5.314 1.422-3.249-3.406-5.42-4.424-1.827-4.88 23.58-14.552 70.126-19.351 93.361-0.651 2.95 4.013 3.982 4.611 0.958l8.084-39.029c23.872-15.877 27.6 12.53 49.061 11.849 12.883-0.897 20.713-8.466 21.604-9.566 0.472-1.221 10.241-47.52 10.398-48.816zm-54.174-5.673c5.352 1.048 10.083 5.921 14.642 9.604l-2.688 12.628c-4.491-3.743-8.982-8.062-14.717-9.237l2.763-12.995zm-22.823 32.599 2.994-14.326c4.693-2.591 11.049-4.979 15.72-4.312l-3.189 14.717c-5.3-0.742-11.678 1.915-15.525 3.921zm28.445 19.419c-4.424-3.743-8.9-7.8-14.77-8.983l2.763-12.995c5.547 1.093 10.121 5.592 14.687 9.388l-2.68 12.59zm3.982-13.07 3.099-14.575c3.953 3.242 9.065 6.491 15.36 6.214l-3.121 14.68c-6.228 0.402-11.4-3.025-15.338-6.319zm29.943 13.174c-1.796 1.497-8.062 6.28-16.4 7.141l2.739-12.867c7.208-0.658 11.67-2.949 16.109-5.786l-2.448 11.512zm6.176-29.074c-3.054 2.245-8.923 5.681-16.214 6.28l2.74-12.883c5.667-0.377 11.154-2.146 15.975-5.149l-2.501 11.752z" fill="#fff"/>
</svg>
