<?xml version="1.0" encoding="utf-8"?>
<!-- Generator: Adobe Illustrator 16.0.0, SVG Export Plug-In . SVG Version: 6.00 Build 0)  -->
<!DOCTYPE svg PUBLIC "-//W3C//DTD SVG 1.1//EN" "http://www.w3.org/Graphics/SVG/1.1/DTD/svg11.dtd">
<svg version="1.1" id="Calque_1" xmlns="http://www.w3.org/2000/svg" x="0px" y="0px"
	 width="142px" height="72px" viewBox="0 0 142 72" enable-background="new 0 0 142 72" xml:space="preserve">
<path fill="#7B458B" d="M22.396,6.931H10.946c-1.338,0-2.273,0.258-2.807,0.776C7.608,8.224,7.342,9.12,7.342,10.398v4.516h11.907
	l-0.457,5.658H7.342v13.184H1V7.888c0-2.4,0.525-4.105,1.574-5.109C3.625,1.775,5.425,1.274,7.98,1.274h14.417V6.931z"/>
<path fill="#7B458B" d="M42.781,18.336v-1.688c0-2.919-0.364-5.247-1.095-6.981c-0.853-2.005-2.676-3.01-5.474-3.01
	c-2.829,0-4.669,1.005-5.521,3.01c-0.699,1.644-1.048,3.971-1.048,6.981v1.688c0,3.924,0.547,6.569,1.642,7.938
	c0.426,0.578,1.056,1.072,1.893,1.484c0.837,0.41,1.841,0.615,3.012,0.615c1.17,0,2.167-0.197,2.987-0.594
	c0.823-0.395,1.46-0.883,1.917-1.459c0.457-0.578,0.806-1.338,1.05-2.281C42.567,22.549,42.781,20.646,42.781,18.336 M49.122,16.009
	v2.464c0,5.444-1.025,9.398-3.08,11.861c-2.052,2.465-5.345,3.694-9.875,3.694s-7.809-1.23-9.832-3.694
	c-2.021-2.463-3.034-6.463-3.034-11.998v-2.373c0-5.048,1.027-8.804,3.079-11.269C28.435,2.233,31.688,1,36.143,1
	s7.733,1.247,9.833,3.741C48.074,7.235,49.122,10.991,49.122,16.009"/>
<path fill="#7B458B" d="M67.708,15.029c0.865-0.928,1.302-2.084,1.302-3.468c0-1.383-0.421-2.5-1.257-3.352
	c-0.836-0.852-1.955-1.278-3.354-1.278h-3.148c-1.885,0-2.826,0.958-2.826,2.875v6.614h5.975
	C65.737,16.419,66.841,15.957,67.708,15.029 M76.672,33.756h-7.346l-6.342-12.043h-4.561v12.043h-6.341V8.253
	c0-2.432,0.562-4.202,1.688-5.313c1.124-1.111,3.01-1.667,5.656-1.667h5.383c3.225,0,5.787,0.98,7.689,2.943
	c1.9,1.962,2.85,4.447,2.85,7.458c0,2.189-0.57,4.083-1.71,5.68c-1.14,1.597-2.549,2.699-4.222,3.308L76.672,33.756z"/>
<path fill="#7B458B" d="M103.307,14.367l-5.839,12.318c-0.853,1.643-1.908,2.464-3.171,2.464c-1.264,0-2.319-0.868-3.171-2.602
	l-5.932-12.18v19.389h-6.341V1.274h6.249l9.171,18.75l9.126-18.75h6.249v32.482h-6.342V14.367L103.307,14.367z"/>
<path fill="#7B458B" d="M71.397,68.054H61.022c-3.293,0-5.606-0.57-6.938-1.711c-1.329-1.139-1.995-3.147-1.995-6.031V38.744h19.309
	v5.104H57.812v6.874h9.51l-0.412,5.106h-9.098v4.076c0,1.151,0.26,1.947,0.783,2.387c0.52,0.439,1.467,0.66,2.84,0.66h9.963V68.054z
	"/>
<path fill="#7B458B" d="M97.619,38.742v26.35c0,0.901-0.272,1.68-0.823,2.325c-0.55,0.646-1.192,0.968-1.933,0.968
	c-1.895,0-3.447-1.099-4.653-3.292L80.082,49.241v18.814H74.36V38.742h5.518l12.021,19.184V38.742H97.619z"/>
<path fill="#F39200" d="M135.595,71.389h-32.263V33.721H141v32.265C141,68.97,138.579,71.389,135.595,71.389 M125.25,50.23v-9.627
	c0-1.309-1.354-2.611-2.662-2.611h-3.049V50.23h-9.768c-1.307,0-2.47,1.072-2.47,2.383v3.328h12.237v9.484
	c0,1.311,0.934,2.753,2.242,2.753h3.469V55.941h9.346c1.309,0,2.076-1.216,2.076-2.523V50.23H125.25z"/>
</svg>
