<svg width="48px" height="34px" enable-background="new 0 0 48 34" version="1.1" viewBox="0 0 48 34" xmlns="http://www.w3.org/2000/svg">
 <path d="m46.962 22.118v-0.021h-5.014-0.04-2.24v-5.107c3.212-0.714 5.616-3.573 5.62-7v-2e-3c0-3.964-3.213-7.179-7.179-7.179-3.965 0-7.178 3.215-7.178 7.179 0 3.477 2.471 6.375 5.752 7.034v5.074h-19.51c-0.203-5e-3 -0.406-5e-3 -0.608 0h-1.737v-2.506c1.575-0.264 2.778-1.621 2.78-3.27 0-1.556-2.509-11.951-2.791-13.134l-0.536-2.186-0.528 2.188c-0.287 1.175-2.796 11.578-2.796 13.134 1e-3 1.647 1.204 3.006 2.778 3.27v2.506h-4.876c-0.078-2e-3 -0.157-2e-3 -0.235 0h-0.825v-2.505c1.576-0.262 2.782-1.62 2.783-3.271 0-1.556-2.514-11.951-2.8-13.134l-0.528-2.187-0.531 2.187c-0.287 1.175-2.795 11.579-2.795 13.134 2e-3 1.647 1.206 3.006 2.78 3.27v2.506h-5.708v1.091h3.6c-0.063 0.036-0.126 0.071-0.189 0.109-0.691 0.427-1.313 0.958-1.844 1.572l0.825 0.715c0.458-0.532 0.995-0.991 1.592-1.36 1.13-0.68 2.423-1.036 3.738-1.036h0.102c0.083 2e-3 0.165 4e-3 0.249 8e-3v-8e-3h1.996c-0.842 0.33-1.659 0.731-2.439 1.203-1.322 0.817-2.512 1.833-3.528 3.011l0.827 0.712c0.943-1.092 2.045-2.033 3.271-2.793 2.208-1.333 4.719-2.064 7.284-2.133h0.759c0.117 4e-3 0.234 8e-3 0.351 0.014v-0.014h0.338c-1.449 0.475-2.943 1.136-4.427 2.051-1.808 1.119-3.434 2.506-4.823 4.112l0.824 0.717c1.318-1.526 2.861-2.844 4.577-3.901 3.851-2.379 7.796-2.964 10.702-2.979h0.234c0.267 2e-3 0.525 8e-3 0.773 0.018v-0.018h1.238c-2.482 0.676-5.093 1.727-7.679 3.321-2.541 1.568-4.826 3.518-6.777 5.777l0.835 0.715c1.875-2.176 4.071-4.053 6.512-5.565 4.729-2.914 9.549-3.941 13.439-4.186-2.396 0.673-4.905 1.702-7.396 3.235-2.528 1.562-4.801 3.501-6.742 5.751l0.825 0.712c1.874-2.166 4.068-4.033 6.508-5.535 3.86-2.381 7.782-3.496 11.207-3.953-1.457 0.512-2.949 1.199-4.431 2.111-2.001 1.236-3.802 2.772-5.339 4.555l0.824 0.715c1.467-1.696 3.182-3.16 5.088-4.34 4.353-2.683 8.805-3.315 12.049-3.313h0.025c0.332 0 0.652 8e-3 0.957 0.021l2e-3 -0.021h0.021v-0.523l0.022-0.545c-3e-3 -3e-3 -9e-3 -3e-3 -0.018-3e-3zm-41.951-5.797c0-0.918 1.201-6.263 2.243-10.661 1.039 4.398 2.232 9.743 2.225 10.661 0.011 0.131 0.011 0.264 0 0.395-0.086 0.974-0.784 1.737-1.679 1.967v-3.438h-1.092v3.441c-1.055-0.259-1.795-1.249-1.697-2.365zm7.029 0c0-0.918 1.204-6.263 2.242-10.661 1.034 4.398 2.235 9.743 2.225 10.661 0.012 0.131 0.012 0.264 0 0.395-0.086 0.975-0.784 1.736-1.679 1.967v-3.438h-1.091v3.441c-1.056-0.258-1.796-1.249-1.697-2.365zm19.983-6.332c0-3.36 2.725-6.086 6.086-6.086 3.359 4e-3 6.082 2.727 6.086 6.086 0 3.361-2.725 6.088-6.086 6.088-3.36 0-6.086-2.725-6.086-6.088z" fill="#fff"/>
</svg>
